<svg width="1793" height="610" xmlns="http://www.w3.org/2000/svg" xmlns:xlink="http://www.w3.org/1999/xlink" xml:space="preserve" overflow="hidden"><defs><clipPath id="clip0"><rect x="1061" y="637" width="1793" height="610"/></clipPath></defs><g clip-path="url(#clip0)" transform="translate(-1061 -637)"><path d="M1062 1086.95C1062 1078.14 1069.14 1071 1077.95 1071L1450.05 1071C1458.86 1071 1466 1078.14 1466 1086.95L1466 1189.05C1466 1197.86 1458.86 1205 1450.05 1205L1077.95 1205C1069.14 1205 1062 1197.86 1062 1189.05Z" fill="#58B6E5" fill-rule="evenodd" fill-opacity="0.501961"/><text fill="#0F1423" font-family="Times New Roman,Times New Roman_MSFontService,sans-serif" font-weight="400" font-size="64" transform="matrix(1 0 0 1 1100.24 1162)">GraphSAGE</text><path d="M1270.88 805 1270.88 834.275 1257.13 834.275 1257.12 805ZM1284.63 827.4 1264 868.65 1243.38 827.4Z" fill="#7F7F7F"/><path d="M1585 1093.33C1585 1081 1595 1071 1607.33 1071L2036.67 1071C2049 1071 2059 1081 2059 1093.33L2059 1182.67C2059 1195 2049 1205 2036.67 1205L1607.33 1205C1595 1205 1585 1195 1585 1182.67Z" fill="#FFBA55" fill-rule="evenodd" fill-opacity="0.501961"/><text fill="#0F1423" font-family="Times New Roman,Times New Roman_MSFontService,sans-serif" font-weight="400" font-size="64" transform="matrix(1 0 0 1 1635.55 1162)">Attention Unit</text><rect x="2180.5" y="639.5" width="123" height="199" stroke="#7F7F7F" stroke-width="4.58333" stroke-linejoin="round" stroke-miterlimit="10" stroke-dasharray="18.3333 13.75" fill="#58B6E5" fill-opacity="0.501961"/><rect x="2180.5" y="839.5" width="123" height="199" stroke="#7F7F7F" stroke-width="4.58333" stroke-linejoin="round" stroke-miterlimit="10" stroke-dasharray="18.3333 13.75" fill="#FFBA55" fill-opacity="0.501961"/><rect x="2180.5" y="1039.5" width="123" height="199" stroke="#7F7F7F" stroke-width="4.58333" stroke-linejoin="round" stroke-miterlimit="10" stroke-dasharray="18.3333 13.75" fill="#F18870" fill-opacity="0.501961"/><path d="M1466 1131.13 1550.15 1131.13 1550.15 1144.88 1466 1144.88ZM1543.28 1117.38 1584.53 1138 1543.28 1158.63Z" fill="#7F7F7F"/><path d="M1062 884.949C1062 876.141 1069.14 869 1077.95 869L1450.05 869C1458.86 869 1466 876.141 1466 884.949L1466 987.051C1466 995.859 1458.86 1003 1450.05 1003L1077.95 1003C1069.14 1003 1062 995.859 1062 987.051Z" fill="#58B6E5" fill-rule="evenodd" fill-opacity="0.501961"/><text fill="#0F1423" font-family="Times New Roman,Times New Roman_MSFontService,sans-serif" font-weight="400" font-size="64" transform="matrix(1 0 0 1 1100.24 959)">GraphSAGE</text><path d="M1062 686.949C1062 678.141 1069.14 671 1077.95 671L1450.05 671C1458.86 671 1466 678.141 1466 686.949L1466 789.051C1466 797.859 1458.86 805 1450.05 805L1077.95 805C1069.14 805 1062 797.859 1062 789.051Z" fill="#58B6E5" fill-rule="evenodd" fill-opacity="0.501961"/><text fill="#0F1423" font-family="Times New Roman,Times New Roman_MSFontService,sans-serif" font-weight="400" font-size="64" transform="matrix(1 0 0 1 1100.24 762)">GraphSAGE</text><path d="M1585 894.334C1585 881.999 1595 872 1607.33 872L2035.67 872C2048 872 2058 881.999 2058 894.334L2058 983.667C2058 996.001 2048 1006 2035.67 1006L1607.33 1006C1595 1006 1585 996.001 1585 983.667Z" fill="#FFBA55" fill-rule="evenodd" fill-opacity="0.501961"/><text fill="#0F1423" font-family="Times New Roman,Times New Roman_MSFontService,sans-serif" font-weight="400" font-size="64" transform="matrix(1 0 0 1 1635 962)">Attention Unit</text><path d="M1590 693.334C1590 680.999 1600 671 1612.33 671L2033.67 671C2046 671 2056 680.999 2056 693.334L2056 782.666C2056 795.001 2046 805 2033.67 805L1612.33 805C1600 805 1590 795.001 1590 782.666Z" fill="#FFBA55" fill-rule="evenodd" fill-opacity="0.501961"/><text fill="#0F1423" font-family="Times New Roman,Times New Roman_MSFontService,sans-serif" font-weight="400" font-size="64" transform="matrix(1 0 0 1 1636.53 762)">Attention Unit</text><path d="M1466.17 929.127 1550.33 931.146 1550 944.892 1465.84 942.873ZM1543.78 917.235 1584.53 938.844 1542.79 958.473Z" fill="#7F7F7F"/><path d="M0.00727134-6.875 89.1542-6.78071 89.1397 6.96928-0.00727134 6.875ZM82.2937-20.538 123.522 0.130643 82.2501 20.712Z" fill="#7F7F7F" transform="matrix(1 0 0 -1 1466 738.131)"/><path d="M2056.03 731.125 2145.93 731.567 2145.87 745.317 2055.97 744.875ZM2139.13 717.784 2180.27 738.611 2138.92 759.033Z" fill="#7F7F7F"/><path d="M0.0195521-6.87497 87.9742-6.62483 87.9351 7.12511-0.0195521 6.87497ZM81.1384-20.3943 122.33 0.3479 81.021 20.8555Z" fill="#7F7F7F" transform="matrix(1 0 0 -1 2058 938.348)"/><path d="M0.0191156-6.87497 86.8734-6.63348 86.8352 7.11647-0.0191156 6.87497ZM80.0367-20.4025 121.229 0.337073 79.922 20.8473Z" fill="#7F7F7F" transform="matrix(1 0 0 -1 2059 1138.34)"/><path d="M2400.5 777C2400.5 754.633 2418.63 736.5 2441 736.5L2603 736.5C2625.37 736.5 2643.5 754.633 2643.5 777L2643.5 1100C2643.5 1122.37 2625.37 1140.5 2603 1140.5L2441 1140.5C2418.63 1140.5 2400.5 1122.37 2400.5 1100Z" stroke="#FFBA55" stroke-width="4.58333" stroke-miterlimit="8" fill="#FFFFFF" fill-rule="evenodd"/><path d="M2442.5 791.5C2442.5 776.036 2454.81 763.5 2470 763.5 2485.19 763.5 2497.5 776.036 2497.5 791.5 2497.5 806.964 2485.19 819.5 2470 819.5 2454.81 819.5 2442.5 806.964 2442.5 791.5Z" stroke="#000000" stroke-width="4.58333" stroke-miterlimit="8" fill="#FFBA55" fill-rule="evenodd"/><path d="M2442.5 865C2442.5 849.812 2454.81 837.5 2470 837.5 2485.19 837.5 2497.5 849.812 2497.5 865 2497.5 880.188 2485.19 892.5 2470 892.5 2454.81 892.5 2442.5 880.188 2442.5 865Z" stroke="#000000" stroke-width="4.58333" stroke-miterlimit="8" fill="#FFBA55" fill-rule="evenodd"/><path d="M2442.5 939C2442.5 923.812 2454.81 911.5 2470 911.5 2485.19 911.5 2497.5 923.812 2497.5 939 2497.5 954.188 2485.19 966.5 2470 966.5 2454.81 966.5 2442.5 954.188 2442.5 939Z" stroke="#000000" stroke-width="4.58333" stroke-miterlimit="8" fill="#FFBA55" fill-rule="evenodd"/><path d="M2442.5 1012.5C2442.5 997.036 2454.81 984.5 2470 984.5 2485.19 984.5 2497.5 997.036 2497.5 1012.5 2497.5 1027.96 2485.19 1040.5 2470 1040.5 2454.81 1040.5 2442.5 1027.96 2442.5 1012.5Z" stroke="#000000" stroke-width="4.58333" stroke-miterlimit="8" fill="#FFBA55" fill-rule="evenodd"/><path d="M2442.5 1086C2442.5 1070.81 2454.81 1058.5 2470 1058.5 2485.19 1058.5 2497.5 1070.81 2497.5 1086 2497.5 1101.19 2485.19 1113.5 2470 1113.5 2454.81 1113.5 2442.5 1101.19 2442.5 1086Z" stroke="#000000" stroke-width="4.58333" stroke-miterlimit="8" fill="#FFBA55" fill-rule="evenodd"/><path d="M2546.5 830C2546.5 814.812 2559.04 802.5 2574.5 802.5 2589.96 802.5 2602.5 814.812 2602.5 830 2602.5 845.188 2589.96 857.5 2574.5 857.5 2559.04 857.5 2546.5 845.188 2546.5 830Z" stroke="#000000" stroke-width="4.58333" stroke-miterlimit="8" fill="#FFBA55" fill-rule="evenodd"/><path d="M2546.5 903.5C2546.5 888.036 2559.04 875.5 2574.5 875.5 2589.96 875.5 2602.5 888.036 2602.5 903.5 2602.5 918.964 2589.96 931.5 2574.5 931.5 2559.04 931.5 2546.5 918.964 2546.5 903.5Z" stroke="#000000" stroke-width="4.58333" stroke-miterlimit="8" fill="#FFBA55" fill-rule="evenodd"/><path d="M2546.5 977C2546.5 961.812 2559.04 949.5 2574.5 949.5 2589.96 949.5 2602.5 961.812 2602.5 977 2602.5 992.188 2589.96 1004.5 2574.5 1004.5 2559.04 1004.5 2546.5 992.188 2546.5 977Z" stroke="#000000" stroke-width="4.58333" stroke-miterlimit="8" fill="#FFBA55" fill-rule="evenodd"/><path d="M2546.5 1051C2546.5 1035.81 2559.04 1023.5 2574.5 1023.5 2589.96 1023.5 2602.5 1035.81 2602.5 1051 2602.5 1066.19 2589.96 1078.5 2574.5 1078.5 2559.04 1078.5 2546.5 1066.19 2546.5 1051Z" stroke="#000000" stroke-width="4.58333" stroke-miterlimit="8" fill="#FFBA55" fill-rule="evenodd"/><path d="M2497.5 791.5 2546.46 829.805" stroke="#000000" stroke-width="4.58333" stroke-miterlimit="8" fill="none" fill-rule="evenodd"/><path d="M2497.5 865.5 2546.46 903.805" stroke="#000000" stroke-width="4.58333" stroke-miterlimit="8" fill="none" fill-rule="evenodd"/><path d="M2497.5 938.5 2546.46 976.805" stroke="#000000" stroke-width="4.58333" stroke-miterlimit="8" fill="none" fill-rule="evenodd"/><path d="M2497.5 1012.5 2546.46 1050.8" stroke="#000000" stroke-width="4.58333" stroke-miterlimit="8" fill="none" fill-rule="evenodd"/><path d="M0 0 48.9605 35.3516" stroke="#000000" stroke-width="4.58333" stroke-miterlimit="8" fill="none" fill-rule="evenodd" transform="matrix(1 0 0 -1 2497.5 1085.85)"/><path d="M2497.5 791.5 2546.46 903.462" stroke="#000000" stroke-width="4.58333" stroke-miterlimit="8" fill="none" fill-rule="evenodd"/><path d="M2497.5 791.5 2546.46 977.119" stroke="#000000" stroke-width="4.58333" stroke-miterlimit="8" fill="none" fill-rule="evenodd"/><path d="M2497.5 791.5 2546.46 1050.78" stroke="#000000" stroke-width="4.58333" stroke-miterlimit="8" fill="none" fill-rule="evenodd"/><path d="M0 0 48.9605 35.3519" stroke="#000000" stroke-width="4.58333" stroke-miterlimit="8" fill="none" fill-rule="evenodd" transform="matrix(1 0 0 -1 2497.5 864.852)"/><path d="M2497.5 865.5 2546.46 977.462" stroke="#000000" stroke-width="4.58333" stroke-miterlimit="8" fill="none" fill-rule="evenodd"/><path d="M2497.5 865.5 2546.46 1051.12" stroke="#000000" stroke-width="4.58333" stroke-miterlimit="8" fill="none" fill-rule="evenodd"/><path d="M0 0 48.9605 109.009" stroke="#000000" stroke-width="4.58333" stroke-miterlimit="8" fill="none" fill-rule="evenodd" transform="matrix(1 0 0 -1 2497.5 938.509)"/><path d="M0 0 48.9605 35.3519" stroke="#000000" stroke-width="4.58333" stroke-miterlimit="8" fill="none" fill-rule="evenodd" transform="matrix(1 0 0 -1 2497.5 938.852)"/><path d="M2497.5 938.5 2546.46 1050.46" stroke="#000000" stroke-width="4.58333" stroke-miterlimit="8" fill="none" fill-rule="evenodd"/><path d="M0 0 48.9605 182.666" stroke="#000000" stroke-width="4.58333" stroke-miterlimit="8" fill="none" fill-rule="evenodd" transform="matrix(1 0 0 -1 2497.5 1012.17)"/><path d="M0 0 48.9605 109.009" stroke="#000000" stroke-width="4.58333" stroke-miterlimit="8" fill="none" fill-rule="evenodd" transform="matrix(1 0 0 -1 2497.5 1012.51)"/><path d="M0 0 48.9605 35.3519" stroke="#000000" stroke-width="4.58333" stroke-miterlimit="8" fill="none" fill-rule="evenodd" transform="matrix(1 0 0 -1 2497.5 1012.85)"/><path d="M0 0 48.9605 256.322" stroke="#000000" stroke-width="4.58333" stroke-miterlimit="8" fill="none" fill-rule="evenodd" transform="matrix(1 0 0 -1 2497.5 1085.82)"/><path d="M0 0 48.9605 182.665" stroke="#000000" stroke-width="4.58333" stroke-miterlimit="8" fill="none" fill-rule="evenodd" transform="matrix(1 0 0 -1 2497.5 1086.17)"/><path d="M0 0 48.9605 109.009" stroke="#000000" stroke-width="4.58333" stroke-miterlimit="8" fill="none" fill-rule="evenodd" transform="matrix(1 0 0 -1 2497.5 1086.51)"/><path d="M2748 648.804C2748 643.39 2752.39 639 2757.8 639L2833.2 639C2838.61 639 2843 643.39 2843 648.804L2843 1225.2C2843 1230.61 2838.61 1235 2833.2 1235L2757.8 1235C2752.39 1235 2748 1230.61 2748 1225.2Z" fill="#EC5F74" fill-rule="evenodd" fill-opacity="0.501961"/><text fill="#0F1423" font-family="Times New Roman,Times New Roman_MSFontService,sans-serif" font-weight="400" font-size="64" transform="matrix(6.12323e-17 1 -1 6.12323e-17 2773.29 701)">Graph <tspan font-size="64" x="176" y="1.07769e-14">Embedding</tspan></text><path d="M2303 931.125 2365.58 931.125 2365.58 944.875 2303 944.875ZM2358.7 917.375 2399.95 938 2358.7 958.625Z" fill="#7F7F7F"/><path d="M0.0960775-6.87433 70.5868-5.88913 70.3946 7.85953-0.0960775 6.87433ZM63.9046-19.7339 104.862 1.46558 63.3281 21.5121Z" fill="#7F7F7F" transform="matrix(1 0 0 -1 2643 938.466)"/><text font-family="Arial,Arial_MSFontService,sans-serif" font-weight="700" font-size="55" transform="matrix(1 0 0 1 2465.73 1200)">MPL</text><path d="M1270.88 1003 1270.88 1037.15 1257.13 1037.15 1257.12 1003ZM1284.63 1030.27 1264 1071.52 1243.38 1030.27Z" fill="#7F7F7F"/></g></svg>