<svg width="2570" height="924" xmlns="http://www.w3.org/2000/svg" xmlns:xlink="http://www.w3.org/1999/xlink" xml:space="preserve" overflow="hidden"><defs><clipPath id="clip0"><rect x="1202" y="1285" width="2570" height="924"/></clipPath></defs><g clip-path="url(#clip0)" transform="translate(-1202 -1285)"><path d="M1968.5 1479.87C1968.5 1453.16 1990.16 1431.5 2016.87 1431.5L2953.13 1431.5C2979.84 1431.5 3001.5 1453.16 3001.5 1479.87L3001.5 2019.13C3001.5 2045.84 2979.84 2067.5 2953.13 2067.5L2016.87 2067.5C1990.16 2067.5 1968.5 2045.84 1968.5 2019.13Z" stroke="#EC5F74" stroke-width="4.58333" stroke-miterlimit="8" fill="#FFFFFF" fill-rule="evenodd"/><path d="M2026.07 2036.5C2008.63 2036.5 1994.5 2022.37 1994.5 2004.93L1994.5 1579.07C1994.5 1561.63 2008.63 1547.5 2026.07 1547.5M2949.93 1547.5C2967.37 1547.5 2981.5 1561.63 2981.5 1579.07L2981.5 2004.93C2981.5 2022.37 2967.37 2036.5 2949.93 2036.5" stroke="#000000" stroke-width="4.58333" stroke-miterlimit="8" fill="none" fill-rule="evenodd"/><rect x="2074" y="1641" width="102" height="24.0001" fill="#58B6E5" fill-opacity="0.501961"/><rect x="2205" y="1587" width="145" height="131" fill="#F18870" fill-opacity="0.501961"/><path d="M2198.23 1637.03 2213.09 1637.03 2212.7 1638.78C2211.63 1638.85 2210.79 1639.17 2210.19 1639.73 2209.58 1640.28 2209.16 1641.04 2208.92 1642.01 2208.68 1642.97 2208.56 1644.33 2208.56 1646.09L2208.56 1647.3C2208.56 1647.73 2208.58 1648.17 2208.6 1648.62L2208.92 1662.56C2208.94 1663.58 2208.96 1666.11 2208.96 1670.15L2208.92 1677.6 2209.28 1677.6 2228.99 1637.03 2234.37 1637.03 2234.37 1660.81C2234.37 1664.73 2234.26 1670.33 2234.05 1677.6L2234.41 1677.6 2248.84 1649.69C2249.39 1648.64 2249.96 1647.41 2250.57 1646 2251.18 1644.59 2251.48 1643.37 2251.48 1642.35 2251.48 1640.35 2250.29 1639.16 2247.92 1638.78L2248.31 1637.03 2262.89 1637.03 2262.49 1638.78C2261.4 1638.92 2260.35 1639.52 2259.36 1640.58 2258.36 1641.64 2257.03 1643.7 2255.36 1646.77L2233.94 1686.15 2228.45 1686.15 2228.45 1660.06C2228.45 1655.83 2228.56 1651.42 2228.77 1646.84L2228.42 1646.84 2209.35 1686.15 2203.75 1686.15 2202.08 1646.52C2201.98 1644.54 2201.77 1643.04 2201.45 1641.99 2201.13 1640.94 2200.7 1640.18 2200.15 1639.71 2199.6 1639.23 2198.83 1638.92 2197.83 1638.78Z" fill="#0F1423" fill-rule="evenodd"/><text fill="#000000" fill-opacity="0" font-family="Arial,Arial_MSFontService,sans-serif" font-size="49.1182" x="2197.83" y="1680.01">ğ‘Š</text><path d="M2267.26 1677.23C2266.85 1677.23 2266.38 1677.24 2265.84 1677.26 2265.31 1677.28 2264.79 1677.29 2264.29 1677.29L2261.21 1690.82 2264.29 1690.82C2267.7 1690.82 2270.33 1690.13 2272.16 1688.74 2273.98 1687.35 2274.9 1685.24 2274.9 1682.41 2274.9 1681.46 2274.76 1680.65 2274.47 1679.99 2274.19 1679.33 2273.73 1678.79 2273.11 1678.39 2272.49 1677.98 2271.7 1677.69 2270.75 1677.51 2269.79 1677.33 2268.63 1677.23 2267.26 1677.23ZM2256.34 1674.49 2268.22 1674.49C2270.5 1674.49 2272.4 1674.69 2273.92 1675.09 2275.43 1675.48 2276.65 1676.03 2277.56 1676.73 2278.48 1677.43 2279.13 1678.25 2279.51 1679.2 2279.89 1680.15 2280.07 1681.18 2280.07 1682.28 2280.07 1684.83 2279.29 1686.96 2277.73 1688.67 2276.17 1690.38 2273.8 1691.68 2270.63 1692.58 2270.59 1692.65 2270.58 1692.71 2270.58 1692.76 2270.58 1692.81 2270.58 1692.87 2270.58 1692.94 2271.39 1693.5 2272.04 1694.19 2272.53 1695.01 2273.02 1695.84 2273.45 1696.94 2273.81 1698.3 2274.23 1699.92 2274.57 1701.23 2274.83 1702.23 2275.1 1703.23 2275.41 1704.02 2275.77 1704.6 2276.12 1705.18 2276.57 1705.6 2277.11 1705.87 2277.66 1706.14 2278.39 1706.34 2279.32 1706.48L2278.96 1708.06 2271.43 1708.06C2271.12 1707.38 2270.82 1706.56 2270.53 1705.58 2270.23 1704.61 2269.97 1703.66 2269.75 1702.73 2269.4 1701.36 2269.12 1700.18 2268.88 1699.19 2268.65 1698.2 2268.42 1697.36 2268.2 1696.68 2267.97 1696 2267.74 1695.46 2267.5 1695.05 2267.26 1694.65 2266.97 1694.32 2266.64 1694.08 2266.32 1693.84 2265.92 1693.68 2265.45 1693.6 2264.99 1693.53 2264.42 1693.47 2263.75 1693.43L2260.67 1693.43C2260.46 1694.35 2260.23 1695.33 2259.99 1696.38 2259.75 1697.44 2259.51 1698.46 2259.28 1699.46 2259.05 1700.47 2258.85 1701.4 2258.7 1702.27 2258.54 1703.14 2258.47 1703.85 2258.47 1704.38 2258.47 1704.74 2258.51 1705.05 2258.6 1705.3 2258.68 1705.55 2258.83 1705.75 2259.05 1705.91 2259.26 1706.06 2259.56 1706.18 2259.93 1706.27 2260.3 1706.36 2260.77 1706.43 2261.34 1706.48L2261 1708.06 2249.95 1708.06 2250.24 1706.48C2250.77 1706.39 2251.21 1706.28 2251.54 1706.15 2251.88 1706.02 2252.18 1705.77 2252.45 1705.4 2252.72 1705.03 2252.96 1704.48 2253.19 1703.73 2253.41 1702.99 2253.67 1701.96 2253.96 1700.63L2258.21 1681.76C2258.38 1681 2258.51 1680.33 2258.6 1679.74 2258.68 1679.16 2258.72 1678.68 2258.72 1678.3 2258.72 1677.52 2258.53 1676.97 2258.14 1676.64 2257.75 1676.31 2257.03 1676.14 2255.96 1676.12Z" fill="#0F1423" fill-rule="evenodd"/><text fill="#000000" fill-opacity="0" font-family="Arial,Arial_MSFontService,sans-serif" font-size="33.5649" x="2249.95" y="1703.86">ğ‘…</text><path d="M2274.47 1608.84 2286.01 1608.84 2286.01 1610.84 2278.77 1610.84 2278.77 1656.2 2286.01 1656.2 2286.01 1658.19 2274.47 1658.19Z" fill="#0F1423" fill-rule="evenodd"/><text fill="#000000" fill-opacity="0" font-family="Arial,Arial_MSFontService,sans-serif" font-size="49.3511" x="2274.47" y="1652.03">[</text><path d="M2304.95 1613.01 2306.52 1613.01C2306.49 1613.96 2306.46 1614.81 2306.45 1615.56 2306.43 1616.31 2306.42 1617.04 2306.41 1617.75 2306.4 1618.45 2306.39 1619.15 2306.39 1619.84L2306.39 1639.51C2306.39 1640.04 2306.41 1640.51 2306.45 1640.89 2306.48 1641.28 2306.54 1641.61 2306.61 1641.88 2306.69 1642.15 2306.8 1642.37 2306.93 1642.56 2307.05 1642.75 2307.21 1642.92 2307.38 1643.06 2307.59 1643.26 2307.86 1643.42 2308.21 1643.53 2308.55 1643.65 2308.99 1643.74 2309.53 1643.82 2310.06 1643.9 2310.7 1643.96 2311.45 1644 2312.2 1644.04 2313.11 1644.07 2314.16 1644.09L2314.16 1646.34 2293.64 1646.34 2293.64 1644.09C2294.65 1644.06 2295.52 1644.02 2296.22 1643.97 2296.93 1643.93 2297.54 1643.87 2298.04 1643.79 2298.54 1643.71 2298.94 1643.63 2299.24 1643.53 2299.54 1643.44 2299.8 1643.32 2300.03 1643.18 2300.27 1643.03 2300.48 1642.86 2300.65 1642.68 2300.82 1642.5 2300.96 1642.27 2301.06 1641.99 2301.17 1641.72 2301.25 1641.38 2301.31 1640.98 2301.37 1640.59 2301.4 1640.1 2301.4 1639.51L2301.4 1620.95C2301.4 1620.28 2301.27 1619.81 2301.01 1619.53 2300.75 1619.26 2300.38 1619.12 2299.9 1619.12 2299.36 1619.12 2298.57 1619.39 2297.52 1619.95 2296.47 1620.5 2295.1 1621.32 2293.43 1622.4 2293.21 1622.01 2293 1621.61 2292.81 1621.21 2292.62 1620.82 2292.42 1620.41 2292.21 1620 2294.35 1618.82 2296.47 1617.65 2298.57 1616.49 2300.66 1615.33 2302.79 1614.17 2304.95 1613.01Z" fill="#0F1423" fill-rule="evenodd"/><text fill="#000000" fill-opacity="0" font-family="Arial,Arial_MSFontService,sans-serif" font-size="33.332" x="2292.21" y="1642.18">1</text><path d="M2319.53 1608.84 2331.07 1608.84 2331.07 1658.19 2319.53 1658.19 2319.53 1656.2 2326.77 1656.2 2326.77 1610.84 2319.53 1610.84Z" fill="#0F1423" fill-rule="evenodd"/><text fill="#000000" fill-opacity="0" font-family="Arial,Arial_MSFontService,sans-serif" font-size="49.3511" x="2319.53" y="1652.03">]</text><rect x="2365" y="1587" width="23" height="131" fill="#FFBA55" fill-opacity="0.501961"/><rect x="2056.5" y="1575.5" width="346" height="152" stroke="#000000" stroke-width="6.875" stroke-linejoin="round" stroke-miterlimit="10" stroke-dasharray="27.5 20.625" fill="none"/><rect x="2074" y="1902" width="102" height="24.0001" fill="#58B6E5" fill-opacity="0.501961"/><rect x="2205" y="1849" width="145" height="130" fill="#F18870" fill-opacity="0.501961"/><path d="M2196.59 1898.22 2211.45 1898.22 2211.06 1899.97C2209.99 1900.04 2209.15 1900.35 2208.55 1900.91 2207.94 1901.47 2207.52 1902.23 2207.28 1903.19 2207.04 1904.16 2206.93 1905.52 2206.93 1907.28L2206.93 1908.49C2206.93 1908.92 2206.94 1909.35 2206.96 1909.81L2207.28 1923.74C2207.31 1924.77 2207.32 1927.3 2207.32 1931.34L2207.28 1938.79 2207.64 1938.79 2227.35 1898.22 2232.73 1898.22 2232.73 1922C2232.73 1925.92 2232.62 1931.51 2232.41 1938.79L2232.77 1938.79 2247.2 1910.88C2247.75 1909.83 2248.33 1908.6 2248.93 1907.19 2249.54 1905.77 2249.84 1904.55 2249.84 1903.53 2249.84 1901.54 2248.65 1900.35 2246.28 1899.97L2246.67 1898.22 2261.25 1898.22 2260.86 1899.97C2259.76 1900.11 2258.72 1900.71 2257.72 1901.77 2256.72 1902.83 2255.39 1904.89 2253.73 1907.95L2232.3 1947.34 2226.81 1947.34 2226.81 1921.25C2226.81 1917.02 2226.92 1912.61 2227.14 1908.02L2226.78 1908.02 2207.71 1947.34 2202.11 1947.34 2200.44 1907.7C2200.34 1905.73 2200.13 1904.22 2199.81 1903.18 2199.49 1902.13 2199.06 1901.37 2198.51 1900.9 2197.97 1900.42 2197.19 1900.11 2196.2 1899.97Z" fill="#0F1423" fill-rule="evenodd"/><text fill="#000000" fill-opacity="0" font-family="Arial,Arial_MSFontService,sans-serif" font-size="49.1182" x="2196.2" y="1941.2">ğ‘Š</text><path d="M2265.63 1938.42C2265.21 1938.42 2264.74 1938.43 2264.2 1938.45 2263.67 1938.46 2263.15 1938.47 2262.65 1938.47L2259.57 1952.01 2262.65 1952.01C2266.07 1952.01 2268.69 1951.31 2270.52 1949.92 2272.35 1948.54 2273.26 1946.43 2273.26 1943.6 2273.26 1942.65 2273.12 1941.84 2272.83 1941.18 2272.55 1940.51 2272.1 1939.98 2271.48 1939.57 2270.85 1939.17 2270.06 1938.87 2269.11 1938.69 2268.15 1938.51 2266.99 1938.42 2265.63 1938.42ZM2254.71 1935.68 2266.58 1935.68C2268.86 1935.68 2270.76 1935.88 2272.28 1936.27 2273.8 1936.67 2275.01 1937.22 2275.93 1937.92 2276.84 1938.62 2277.49 1939.44 2277.87 1940.39 2278.25 1941.34 2278.44 1942.36 2278.44 1943.47 2278.44 1946.02 2277.66 1948.15 2276.09 1949.86 2274.53 1951.57 2272.17 1952.87 2268.99 1953.77 2268.96 1953.84 2268.94 1953.9 2268.94 1953.95 2268.94 1954 2268.94 1954.06 2268.94 1954.13 2269.75 1954.68 2270.4 1955.37 2270.89 1956.2 2271.38 1957.03 2271.81 1958.12 2272.17 1959.49 2272.59 1961.11 2272.93 1962.42 2273.2 1963.42 2273.46 1964.42 2273.77 1965.21 2274.13 1965.79 2274.48 1966.37 2274.93 1966.79 2275.47 1967.06 2276.02 1967.32 2276.75 1967.53 2277.69 1967.66L2277.32 1969.24 2269.79 1969.24C2269.48 1968.57 2269.18 1967.75 2268.89 1966.77 2268.59 1965.8 2268.34 1964.84 2268.11 1963.91 2267.77 1962.55 2267.48 1961.37 2267.24 1960.38 2267.01 1959.39 2266.78 1958.55 2266.56 1957.87 2266.33 1957.19 2266.1 1956.64 2265.86 1956.24 2265.62 1955.83 2265.33 1955.51 2265.01 1955.27 2264.68 1955.03 2264.28 1954.87 2263.81 1954.79 2263.35 1954.71 2262.78 1954.66 2262.11 1954.62L2259.03 1954.62C2258.82 1955.54 2258.6 1956.52 2258.35 1957.57 2258.11 1958.62 2257.88 1959.65 2257.64 1960.65 2257.41 1961.65 2257.22 1962.59 2257.06 1963.46 2256.91 1964.33 2256.83 1965.03 2256.83 1965.57 2256.83 1965.93 2256.87 1966.24 2256.96 1966.49 2257.04 1966.74 2257.19 1966.94 2257.41 1967.1 2257.63 1967.25 2257.92 1967.37 2258.29 1967.46 2258.66 1967.54 2259.13 1967.61 2259.7 1967.66L2259.36 1969.24 2248.31 1969.24 2248.6 1967.66C2249.13 1967.58 2249.57 1967.47 2249.91 1967.34 2250.24 1967.21 2250.54 1966.96 2250.81 1966.59 2251.08 1966.22 2251.32 1965.66 2251.55 1964.92 2251.77 1964.18 2252.03 1963.14 2252.32 1961.82L2256.57 1942.95C2256.74 1942.19 2256.87 1941.52 2256.96 1940.93 2257.04 1940.35 2257.09 1939.86 2257.09 1939.48 2257.09 1938.71 2256.89 1938.15 2256.5 1937.83 2256.12 1937.5 2255.39 1937.33 2254.32 1937.31Z" fill="#0F1423" fill-rule="evenodd"/><text fill="#000000" fill-opacity="0" font-family="Arial,Arial_MSFontService,sans-serif" font-size="33.5649" x="2248.31" y="1965.05">ğ‘…</text><path d="M2272.83 1870.03 2284.38 1870.03 2284.38 1872.02 2277.13 1872.02 2277.13 1917.39 2284.38 1917.39 2284.38 1919.38 2272.83 1919.38Z" fill="#0F1423" fill-rule="evenodd"/><text fill="#000000" fill-opacity="0" font-family="Arial,Arial_MSFontService,sans-serif" font-size="49.3511" x="2272.83" y="1913.21">[</text><path d="M2299.81 1872.2 2301.68 1872.2 2297.12 1892.34 2297.85 1892.34C2298.5 1892.34 2299.21 1892.2 2299.97 1891.92 2300.73 1891.65 2301.48 1891.29 2302.23 1890.85 2302.98 1890.41 2303.7 1889.91 2304.39 1889.36 2305.08 1888.81 2305.69 1888.25 2306.22 1887.69 2306.74 1887.13 2307.16 1886.6 2307.47 1886.1 2307.78 1885.6 2307.94 1885.18 2307.94 1884.83 2307.94 1884.42 2307.8 1884.08 2307.53 1883.82 2307.25 1883.56 2306.75 1883.39 2306.02 1883.31L2306.33 1881.65 2315.65 1881.65 2316.3 1883.25C2315.21 1884.19 2314.17 1885.05 2313.17 1885.84 2312.17 1886.64 2311.19 1887.4 2310.23 1888.13 2309.27 1888.87 2308.31 1889.59 2307.36 1890.29 2306.4 1891 2305.42 1891.73 2304.42 1892.49 2304.83 1893.8 2305.26 1895.14 2305.69 1896.49 2306.12 1897.85 2306.55 1899.19 2306.98 1900.52 2307.19 1901.22 2307.38 1901.83 2307.56 1902.34 2307.75 1902.85 2307.94 1903.26 2308.15 1903.58 2308.35 1903.9 2308.58 1904.14 2308.82 1904.29 2309.06 1904.45 2309.35 1904.53 2309.7 1904.53 2309.94 1904.53 2310.19 1904.48 2310.45 1904.4 2310.71 1904.31 2311 1904.16 2311.32 1903.93 2311.64 1903.71 2312 1903.4 2312.4 1903.01 2312.81 1902.62 2313.27 1902.14 2313.79 1901.55L2315.55 1903.23C2314.74 1904.06 2313.98 1904.78 2313.28 1905.38 2312.58 1905.98 2311.92 1906.48 2311.29 1906.87 2310.66 1907.26 2310.05 1907.54 2309.47 1907.72 2308.88 1907.9 2308.28 1907.99 2307.68 1907.99 2306.59 1907.99 2305.72 1907.72 2305.05 1907.18 2304.39 1906.64 2303.82 1905.86 2303.36 1904.85 2302.89 1903.84 2302.47 1902.62 2302.08 1901.19 2301.69 1899.76 2301.24 1898.16 2300.72 1896.4 2300.6 1895.99 2300.48 1895.65 2300.37 1895.4 2300.26 1895.15 2300.12 1894.96 2299.94 1894.83 2299.77 1894.71 2299.55 1894.62 2299.3 1894.59 2299.04 1894.55 2298.71 1894.54 2298.31 1894.54L2296.66 1894.54 2293.81 1907.53 2288.84 1907.53 2295.1 1879.73C2295.31 1878.82 2295.46 1878.1 2295.54 1877.57 2295.63 1877.05 2295.67 1876.58 2295.67 1876.16 2295.67 1875.84 2295.62 1875.55 2295.5 1875.31 2295.39 1875.07 2295.21 1874.87 2294.95 1874.73 2294.69 1874.58 2294.34 1874.47 2293.91 1874.4 2293.48 1874.33 2292.95 1874.29 2292.31 1874.27L2292.7 1872.51Z" fill="#0F1423" fill-rule="evenodd"/><text fill="#000000" fill-opacity="0" font-family="Arial,Arial_MSFontService,sans-serif" font-size="35.7905" x="2288.84" y="1903.52">ğ‘˜</text><path d="M2321.17 1870.03 2332.71 1870.03 2332.71 1919.38 2321.17 1919.38 2321.17 1917.39 2328.41 1917.39 2328.41 1872.02 2321.17 1872.02Z" fill="#0F1423" fill-rule="evenodd"/><text fill="#000000" fill-opacity="0" font-family="Arial,Arial_MSFontService,sans-serif" font-size="49.3511" x="2321.17" y="1913.21">]</text><rect x="2365" y="1849" width="23" height="130" fill="#FFBA55" fill-opacity="0.501961"/><rect x="2056.5" y="1836.5" width="346" height="153" stroke="#000000" stroke-width="6.875" stroke-linejoin="round" stroke-miterlimit="10" stroke-dasharray="27.5 20.625" fill="none"/><text font-family="Arial,Arial_MSFontService,sans-serif" font-weight="400" font-size="83" transform="matrix(1 0 0 1 2214.16 1798)">...<tspan font-family="Times New Roman,Times New Roman_MSFontService,sans-serif" font-size="64" x="-39.4951" y="-288">Neural Tensor Network</tspan><tspan font-size="83" x="220.756" y="17">+</tspan></text><rect x="2491" y="1667" width="241" height="238" fill="#56CA95" fill-opacity="0.501961"/><path d="M2567.57 1764.66 2582.33 1764.66 2581.93 1766.4C2580.89 1766.52 2580.07 1766.83 2579.49 1767.33 2578.91 1767.83 2578.5 1768.53 2578.26 1769.42 2578.02 1770.31 2577.91 1771.5 2577.91 1773 2577.91 1773.36 2577.94 1774.42 2578.01 1776.21L2579.01 1802.3 2579.01 1805.15 2579.37 1805.15 2594.8 1777.31C2595.7 1775.67 2596.38 1774.26 2596.83 1773.09 2597.28 1771.91 2597.51 1770.87 2597.51 1769.97 2597.51 1767.97 2596.32 1766.78 2593.95 1766.4L2594.34 1764.66 2608.92 1764.66 2608.52 1766.4C2607.88 1766.5 2607.27 1766.74 2606.69 1767.14 2606.11 1767.53 2605.45 1768.18 2604.73 1769.1 2604 1770.01 2602.88 1771.78 2601.36 1774.39L2578.55 1813.88 2573.81 1813.88 2571.42 1774.14C2571.32 1772.59 2571.15 1771.27 2570.9 1770.17 2570.65 1769.06 2570.26 1768.2 2569.73 1767.58 2569.19 1766.96 2568.34 1766.57 2567.18 1766.4Z" fill="#0F1423" fill-rule="evenodd"/><text fill="#000000" fill-opacity="0" font-family="Arial,Arial_MSFontService,sans-serif" font-size="49.2251" x="2567.18" y="1807.73">ğ‘‰</text><path d="M2618.91 1797.46C2618.49 1797.46 2618.02 1797.46 2617.48 1797.48 2616.95 1797.5 2616.43 1797.51 2615.93 1797.51L2612.85 1811.04 2615.93 1811.04C2619.35 1811.04 2621.97 1810.35 2623.8 1808.96 2625.63 1807.57 2626.54 1805.46 2626.54 1802.63 2626.54 1801.68 2626.4 1800.88 2626.11 1800.21 2625.83 1799.55 2625.38 1799.01 2624.75 1798.61 2624.13 1798.2 2623.34 1797.91 2622.39 1797.73 2621.43 1797.55 2620.27 1797.46 2618.91 1797.46ZM2607.98 1794.71 2619.86 1794.71C2622.14 1794.71 2624.04 1794.91 2625.56 1795.31 2627.07 1795.7 2628.29 1796.25 2629.21 1796.95 2630.12 1797.65 2630.77 1798.47 2631.15 1799.42 2631.53 1800.37 2631.72 1801.4 2631.72 1802.5 2631.72 1805.06 2630.93 1807.19 2629.37 1808.89 2627.81 1810.6 2625.44 1811.9 2622.27 1812.8 2622.24 1812.87 2622.22 1812.93 2622.22 1812.98 2622.22 1813.03 2622.22 1813.1 2622.22 1813.16 2623.03 1813.72 2623.68 1814.41 2624.17 1815.23 2624.66 1816.06 2625.09 1817.16 2625.45 1818.52 2625.87 1820.14 2626.21 1821.45 2626.47 1822.45 2626.74 1823.46 2627.05 1824.24 2627.41 1824.82 2627.76 1825.4 2628.21 1825.82 2628.75 1826.09 2629.3 1826.36 2630.03 1826.56 2630.96 1826.7L2630.6 1828.28 2623.07 1828.28C2622.76 1827.6 2622.46 1826.78 2622.17 1825.81 2621.87 1824.83 2621.61 1823.88 2621.39 1822.95 2621.04 1821.58 2620.76 1820.41 2620.52 1819.41 2620.29 1818.42 2620.06 1817.59 2619.84 1816.9 2619.61 1816.22 2619.38 1815.68 2619.14 1815.27 2618.9 1814.87 2618.61 1814.54 2618.28 1814.3 2617.96 1814.06 2617.56 1813.9 2617.09 1813.82 2616.63 1813.75 2616.06 1813.69 2615.39 1813.66L2612.31 1813.66C2612.1 1814.57 2611.87 1815.55 2611.63 1816.61 2611.39 1817.66 2611.15 1818.68 2610.92 1819.69 2610.69 1820.69 2610.49 1821.62 2610.34 1822.49 2610.18 1823.36 2610.11 1824.07 2610.11 1824.6 2610.11 1824.96 2610.15 1825.27 2610.24 1825.52 2610.32 1825.77 2610.47 1825.97 2610.69 1826.13 2610.9 1826.28 2611.2 1826.41 2611.57 1826.49 2611.94 1826.58 2612.41 1826.65 2612.98 1826.7L2612.64 1828.28 2601.59 1828.28 2601.88 1826.7C2602.41 1826.61 2602.85 1826.5 2603.18 1826.38 2603.52 1826.25 2603.82 1826 2604.09 1825.62 2604.36 1825.25 2604.6 1824.7 2604.83 1823.96 2605.05 1823.21 2605.31 1822.18 2605.6 1820.85L2609.85 1801.98C2610.02 1801.23 2610.15 1800.55 2610.24 1799.97 2610.32 1799.38 2610.37 1798.9 2610.37 1798.52 2610.37 1797.74 2610.17 1797.19 2609.78 1796.86 2609.39 1796.53 2608.67 1796.36 2607.6 1796.34Z" fill="#0F1423" fill-rule="evenodd"/><text fill="#000000" fill-opacity="0" font-family="Arial,Arial_MSFontService,sans-serif" font-size="33.5649" x="2601.59" y="1824.08">ğ‘…</text><rect x="2755" y="1632" width="24.9998" height="139" fill="#58B6E5" fill-opacity="0.501961"/><rect x="2755" y="1776" width="24.9998" height="146" fill="#FFBA55" fill-opacity="0.501961"/><text font-family="Arial,Arial_MSFontService,sans-serif" font-weight="400" font-size="83" transform="matrix(1 0 0 1 2820.19 1815)">+</text><rect x="2894" y="1629" width="26.0002" height="295" fill="#EC5F74" fill-opacity="0.501961"/><path d="M2908.15 1957.44C2906.85 1957.44 2905.57 1957.85 2904.32 1958.68 2903.06 1959.5 2901.66 1960.86 2900.12 1962.77 2898.58 1964.67 2897.33 1966.63 2896.35 1968.62 2895.38 1970.62 2894.56 1973.18 2893.88 1976.28L2893.52 1977.99C2893.11 1979.88 2892.91 1981.72 2892.91 1983.5 2892.91 1985.63 2893.38 1987.17 2894.31 1988.12 2895.24 1989.06 2896.79 1989.54 2898.95 1989.54 2900.06 1989.54 2901.11 1989.35 2902.11 1988.99 2903.11 1988.63 2904.13 1988.02 2905.17 1987.19 2906.21 1986.35 2907.2 1985.25 2908.13 1983.88 2909.06 1982.52 2909.92 1980.84 2910.7 1978.84 2911.48 1976.84 2912.09 1974.7 2912.53 1972.41 2912.96 1970.13 2913.17 1967.95 2913.17 1965.87 2913.17 1963.06 2912.78 1960.95 2911.98 1959.55 2911.18 1958.14 2909.9 1957.44 2908.15 1957.44ZM2901.06 1934.14 2903.41 1934.14 2896.27 1962.51 2896.8 1962.67C2899.42 1959.16 2901.88 1956.62 2904.18 1955.05 2906.47 1953.48 2908.77 1952.7 2911.07 1952.7 2914.01 1952.7 2916.3 1953.82 2917.94 1956.06 2919.57 1958.3 2920.39 1961.47 2920.39 1965.54 2920.39 1970 2919.49 1974.39 2917.69 1978.7 2915.9 1983.01 2913.4 1986.42 2910.22 1988.95 2907.03 1991.48 2903.46 1992.74 2899.52 1992.74 2895.92 1992.74 2892.73 1991.86 2889.95 1990.1L2886.22 1992.74 2883.63 1992.09 2894.13 1945.77C2894.75 1943.01 2895.06 1941.01 2895.06 1939.77 2895.06 1938.63 2894.71 1937.84 2894.02 1937.38 2893.34 1936.92 2892.1 1936.66 2890.32 1936.61L2890.8 1934.5Z" fill-rule="evenodd"/><text fill="#000000" fill-opacity="0" font-family="Arial,Arial_MSFontService,sans-serif" font-size="58.6025" x="2883.63" y="1985.41">ğ‘</text><path d="M2932.82 1978.52C2934.29 1978.52 2935.42 1979.01 2936.23 1979.97 2937.03 1980.93 2937.43 1982.2 2937.43 1983.77 2937.43 1984.66 2937.3 1985.45 2937.02 1986.15L2937.43 1986.33C2939.44 1983.65 2941.39 1981.68 2943.29 1980.41 2945.18 1979.15 2947.13 1978.52 2949.14 1978.52 2949.89 1978.52 2950.6 1978.56 2951.27 1978.64 2951.93 1978.72 2952.57 1978.82 2953.19 1978.94L2951.67 1986.15 2948.22 1986.15C2948.12 1984.96 2947.86 1984.1 2947.46 1983.59 2947.05 1983.07 2946.46 1982.81 2945.68 1982.81 2945.23 1982.79 2944.7 1982.93 2944.11 1983.23 2943.51 1983.53 2942.88 1983.95 2942.21 1984.51 2941.55 1985.07 2940.89 1985.72 2940.23 1986.48 2939.58 1987.23 2938.96 1988.05 2938.37 1988.95 2937.79 1989.84 2937.28 1990.79 2936.84 1991.79 2936.4 1992.8 2936.07 1993.8 2935.86 1994.82L2932.82 2008.93 2926.98 2008.93 2931.45 1989.51C2931.73 1988.36 2931.92 1987.41 2932.03 1986.65 2932.14 1985.9 2932.19 1985.26 2932.19 1984.75 2932.19 1983.3 2931.61 1982.57 2930.43 1982.57 2930.06 1982.57 2929.69 1982.65 2929.32 1982.8 2928.95 1982.95 2928.57 1983.17 2928.17 1983.47 2927.77 1983.77 2927.34 1984.14 2926.86 1984.6 2926.38 1985.06 2925.85 1985.59 2925.25 1986.21L2923.2 1984.27C2924.19 1983.26 2925.1 1982.39 2925.92 1981.67 2926.75 1980.94 2927.54 1980.35 2928.29 1979.88 2929.04 1979.41 2929.79 1979.07 2930.52 1978.85 2931.26 1978.63 2932.02 1978.52 2932.82 1978.52Z" fill-rule="evenodd"/><text fill="#000000" fill-opacity="0" font-family="Arial,Arial_MSFontService,sans-serif" font-size="30.4106" x="2923.2" y="2005.13">ğ‘Ÿ</text><path d="M1842 1601.13 1938.62 1601.13 1938.62 1614.88 1842 1614.88ZM1931.75 1587.38 1973 1608 1931.75 1628.63Z" fill="#7F7F7F"/><path d="M0.180056-6.87264 92.0379-4.46606 91.6777 9.27922-0.180056 6.87264ZM85.5254-18.3914 126.221 3.30686 84.445 22.8444Z" fill="#7F7F7F" transform="matrix(1 0 0 -1 1844 1939.31)"/><rect x="3115" y="1285" width="97" height="924" fill="#58B6E5" fill-opacity="0.501961"/><path d="M0.12264-6.87391 79.1094-5.46467 78.8642 8.28314-0.12264 6.87391ZM72.4808-19.3351 113.356 2.02244 71.7449 21.9083Z" fill="#7F7F7F" transform="matrix(1 0 0 -1 3001 1749.02)"/><path d="M3656.5 1502.83C3656.5 1493.81 3663.81 1486.5 3672.83 1486.5L3738.17 1486.5C3747.19 1486.5 3754.5 1493.81 3754.5 1502.83L3754.5 2003.17C3754.5 2012.19 3747.19 2019.5 3738.17 2019.5L3672.83 2019.5C3663.81 2019.5 3656.5 2012.19 3656.5 2003.17Z" stroke="#3E85A8" stroke-width="4.58333" stroke-miterlimit="8" fill="#58B6E5" fill-rule="evenodd"/><text fill="#0F1423" font-family="Times New Roman,Times New Roman_MSFontService,sans-serif" font-weight="400" font-size="73" transform="matrix(6.12323e-17 1 -1 6.12323e-17 3680 1518)">Similarity score</text><path d="M3212.13 1740.13 3275.01 1741.32 3274.75 1755.06 3211.87 1753.87ZM3268.39 1727.44 3309.25 1748.84 3267.61 1768.68Z" fill="#7F7F7F"/><path d="M3553.24 1742.13 3622.71 1744.56 3622.23 1758.3 3552.76 1755.87ZM3616.32 1730.58 3656.82 1752.64 3614.87 1771.8Z" fill="#7F7F7F"/><path d="M3309.5 1588.17C3309.5 1565.71 3327.71 1547.5 3350.17 1547.5L3512.83 1547.5C3535.29 1547.5 3553.5 1565.71 3553.5 1588.17L3553.5 1910.83C3553.5 1933.29 3535.29 1951.5 3512.83 1951.5L3350.17 1951.5C3327.71 1951.5 3309.5 1933.29 3309.5 1910.83Z" stroke="#FFBA55" stroke-width="4.58333" stroke-miterlimit="8" fill="#FFFFFF" fill-rule="evenodd"/><path d="M3351.5 1602C3351.5 1586.81 3363.81 1574.5 3379 1574.5 3394.19 1574.5 3406.5 1586.81 3406.5 1602 3406.5 1617.19 3394.19 1629.5 3379 1629.5 3363.81 1629.5 3351.5 1617.19 3351.5 1602Z" stroke="#000000" stroke-width="4.58333" stroke-miterlimit="8" fill="#FFBA55" fill-rule="evenodd"/><path d="M3351.5 1675.5C3351.5 1660.04 3363.81 1647.5 3379 1647.5 3394.19 1647.5 3406.5 1660.04 3406.5 1675.5 3406.5 1690.96 3394.19 1703.5 3379 1703.5 3363.81 1703.5 3351.5 1690.96 3351.5 1675.5Z" stroke="#000000" stroke-width="4.58333" stroke-miterlimit="8" fill="#FFBA55" fill-rule="evenodd"/><path d="M3351.5 1749C3351.5 1733.81 3363.81 1721.5 3379 1721.5 3394.19 1721.5 3406.5 1733.81 3406.5 1749 3406.5 1764.19 3394.19 1776.5 3379 1776.5 3363.81 1776.5 3351.5 1764.19 3351.5 1749Z" stroke="#000000" stroke-width="4.58333" stroke-miterlimit="8" fill="#FFBA55" fill-rule="evenodd"/><path d="M3351.5 1823C3351.5 1807.81 3363.81 1795.5 3379 1795.5 3394.19 1795.5 3406.5 1807.81 3406.5 1823 3406.5 1838.19 3394.19 1850.5 3379 1850.5 3363.81 1850.5 3351.5 1838.19 3351.5 1823Z" stroke="#000000" stroke-width="4.58333" stroke-miterlimit="8" fill="#FFBA55" fill-rule="evenodd"/><path d="M3351.5 1896.5C3351.5 1881.04 3363.81 1868.5 3379 1868.5 3394.19 1868.5 3406.5 1881.04 3406.5 1896.5 3406.5 1911.96 3394.19 1924.5 3379 1924.5 3363.81 1924.5 3351.5 1911.96 3351.5 1896.5Z" stroke="#000000" stroke-width="4.58333" stroke-miterlimit="8" fill="#FFBA55" fill-rule="evenodd"/><path d="M3455.5 1640C3455.5 1624.81 3468.04 1612.5 3483.5 1612.5 3498.96 1612.5 3511.5 1624.81 3511.5 1640 3511.5 1655.19 3498.96 1667.5 3483.5 1667.5 3468.04 1667.5 3455.5 1655.19 3455.5 1640Z" stroke="#000000" stroke-width="4.58333" stroke-miterlimit="8" fill="#FFBA55" fill-rule="evenodd"/><path d="M3455.5 1714C3455.5 1698.81 3468.04 1686.5 3483.5 1686.5 3498.96 1686.5 3511.5 1698.81 3511.5 1714 3511.5 1729.19 3498.96 1741.5 3483.5 1741.5 3468.04 1741.5 3455.5 1729.19 3455.5 1714Z" stroke="#000000" stroke-width="4.58333" stroke-miterlimit="8" fill="#FFBA55" fill-rule="evenodd"/><path d="M3455.5 1787.5C3455.5 1772.04 3468.04 1759.5 3483.5 1759.5 3498.96 1759.5 3511.5 1772.04 3511.5 1787.5 3511.5 1802.96 3498.96 1815.5 3483.5 1815.5 3468.04 1815.5 3455.5 1802.96 3455.5 1787.5Z" stroke="#000000" stroke-width="4.58333" stroke-miterlimit="8" fill="#FFBA55" fill-rule="evenodd"/><path d="M3455.5 1861C3455.5 1845.81 3468.04 1833.5 3483.5 1833.5 3498.96 1833.5 3511.5 1845.81 3511.5 1861 3511.5 1876.19 3498.96 1888.5 3483.5 1888.5 3468.04 1888.5 3455.5 1876.19 3455.5 1861Z" stroke="#000000" stroke-width="4.58333" stroke-miterlimit="8" fill="#FFBA55" fill-rule="evenodd"/><path d="M3406.5 1601.5 3455.46 1639.81" stroke="#000000" stroke-width="4.58333" stroke-miterlimit="8" fill="none" fill-rule="evenodd"/><path d="M3406.5 1675.5 3455.46 1713.8" stroke="#000000" stroke-width="4.58333" stroke-miterlimit="8" fill="none" fill-rule="evenodd"/><path d="M3406.5 1749.5 3455.46 1787.8" stroke="#000000" stroke-width="4.58333" stroke-miterlimit="8" fill="none" fill-rule="evenodd"/><path d="M3406.5 1822.5 3455.46 1860.81" stroke="#000000" stroke-width="4.58333" stroke-miterlimit="8" fill="none" fill-rule="evenodd"/><path d="M0 0 48.9605 35.3516" stroke="#000000" stroke-width="4.58333" stroke-miterlimit="8" fill="none" fill-rule="evenodd" transform="matrix(1 0 0 -1 3406.5 1896.85)"/><path d="M3406.5 1601.5 3455.46 1713.46" stroke="#000000" stroke-width="4.58333" stroke-miterlimit="8" fill="none" fill-rule="evenodd"/><path d="M3406.5 1601.5 3455.46 1787.12" stroke="#000000" stroke-width="4.58333" stroke-miterlimit="8" fill="none" fill-rule="evenodd"/><path d="M3406.5 1601.5 3455.46 1860.78" stroke="#000000" stroke-width="4.58333" stroke-miterlimit="8" fill="none" fill-rule="evenodd"/><path d="M0 0 48.9605 35.3519" stroke="#000000" stroke-width="4.58333" stroke-miterlimit="8" fill="none" fill-rule="evenodd" transform="matrix(1 0 0 -1 3406.5 1675.85)"/><path d="M3406.5 1675.5 3455.46 1787.46" stroke="#000000" stroke-width="4.58333" stroke-miterlimit="8" fill="none" fill-rule="evenodd"/><path d="M3406.5 1675.5 3455.46 1861.12" stroke="#000000" stroke-width="4.58333" stroke-miterlimit="8" fill="none" fill-rule="evenodd"/><path d="M0 0 48.9605 109.009" stroke="#000000" stroke-width="4.58333" stroke-miterlimit="8" fill="none" fill-rule="evenodd" transform="matrix(1 0 0 -1 3406.5 1749.51)"/><path d="M0 0 48.9605 35.3519" stroke="#000000" stroke-width="4.58333" stroke-miterlimit="8" fill="none" fill-rule="evenodd" transform="matrix(1 0 0 -1 3406.5 1748.85)"/><path d="M3406.5 1749.5 3455.46 1861.46" stroke="#000000" stroke-width="4.58333" stroke-miterlimit="8" fill="none" fill-rule="evenodd"/><path d="M0 0 48.9605 182.666" stroke="#000000" stroke-width="4.58333" stroke-miterlimit="8" fill="none" fill-rule="evenodd" transform="matrix(1 0 0 -1 3406.5 1823.17)"/><path d="M0 0 48.9605 109.009" stroke="#000000" stroke-width="4.58333" stroke-miterlimit="8" fill="none" fill-rule="evenodd" transform="matrix(1 0 0 -1 3406.5 1822.51)"/><path d="M0 0 48.9605 35.3519" stroke="#000000" stroke-width="4.58333" stroke-miterlimit="8" fill="none" fill-rule="evenodd" transform="matrix(1 0 0 -1 3406.5 1822.85)"/><path d="M0 0 48.9605 256.322" stroke="#000000" stroke-width="4.58333" stroke-miterlimit="8" fill="none" fill-rule="evenodd" transform="matrix(1 0 0 -1 3406.5 1896.82)"/><path d="M0 0 48.9605 182.665" stroke="#000000" stroke-width="4.58333" stroke-miterlimit="8" fill="none" fill-rule="evenodd" transform="matrix(1 0 0 -1 3406.5 1896.17)"/><path d="M0 0 48.9605 109.009" stroke="#000000" stroke-width="4.58333" stroke-miterlimit="8" fill="none" fill-rule="evenodd" transform="matrix(1 0 0 -1 3406.5 1896.51)"/><path d="M1202 1574.7C1202 1569.34 1206.34 1565 1211.7 1565L1827.3 1565C1832.66 1565 1837 1569.34 1837 1574.7L1837 1649.3C1837 1654.66 1832.66 1659 1827.3 1659L1211.7 1659C1206.34 1659 1202 1654.66 1202 1649.3Z" fill="#F18870" fill-rule="evenodd" fill-opacity="0.501961"/><text fill="#0F1423" font-family="Arial,Arial_MSFontService,sans-serif" font-weight="400" font-size="64" transform="matrix(1 0 0 1 1242.4 1635)">Graph Embedding1</text><path d="M1203 1908.46C1203 1903.79 1206.79 1900 1211.46 1900L1828.54 1900C1833.21 1900 1837 1903.79 1837 1908.46L1837 1973.54C1837 1978.21 1833.21 1982 1828.54 1982L1211.46 1982C1206.79 1982 1203 1978.21 1203 1973.54Z" fill="#56CA95" fill-rule="evenodd" fill-opacity="0.501961"/><text fill="#0F1423" font-family="Arial,Arial_MSFontService,sans-serif" font-weight="400" font-size="64" transform="matrix(1 0 0 1 1242.94 1965)">Graph Embedding2</text></g></svg>